<?xml version="1.0" encoding="UTF-8"?>
<svg width="202px" height="40px" viewBox="0 0 202 40" version="1.1" xmlns="http://www.w3.org/2000/svg" xmlns:xlink="http://www.w3.org/1999/xlink">
    <!-- Generator: Sketch 55.2 (78181) - https://sketchapp.com -->
    <title>BA_logo_HORIZ_R0_G38_B132</title>
    <desc>Created with Sketch.</desc>
    <defs>
        <polygon id="path-1" points="0.0279069767 0.382325581 201.674419 0.382325581 201.674419 40 0.0279069767 40"></polygon>
    </defs>
    <g id="V7-Design-Pass---Final" stroke="none" stroke-width="1" fill="none" fill-rule="evenodd">
        <g id="Conversion-Landing-Page" transform="translate(-144.000000, -87.000000)">
            <g id="BA_logo_HORIZ_R0_G38_B132" transform="translate(144.000000, 87.000000)">
                <path d="M46.1460465,20.515814 L43.0330233,20.515814 L43.0330233,27.8725581 C43.6823256,27.847907 44.4139535,27.847907 45.2269767,27.8725581 C46.0404651,27.8981395 46.7976744,27.8348837 47.4976744,27.684186 C48.1981395,27.5334884 48.7865116,27.1688372 49.2604651,26.5897674 C49.7362791,26.0111628 49.9744186,25.2069767 49.9744186,24.1753488 C49.9744186,23.1944186 49.667907,22.3395349 49.0548837,21.6097674 C48.4418605,20.8804651 47.4725581,20.515814 46.1460465,20.515814 Z M43.0330233,10.14 L43.0330233,16.2144186 L45.6934884,16.2144186 C46.8939535,16.2144186 47.7376744,15.9190698 48.2246512,15.327907 C48.7116279,14.7372093 48.955814,14.0139535 48.955814,13.1581395 C48.955814,12.3037209 48.7055814,11.5925581 48.2065116,11.0265116 C47.7060465,10.4604651 46.8688372,10.1776744 45.6934884,10.1776744 C45.1190698,10.1776744 44.6125581,10.1776744 44.1762791,10.1776744 C43.7381395,10.1776744 43.3572093,10.1655814 43.0330233,10.14 Z M37.2976744,6.02744186 C39.3348837,5.97767442 41.0767442,5.94 42.5232558,5.9144186 C43.9688372,5.88976744 45.1325581,5.87674419 46.0130233,5.87674419 C48.7548837,5.87674419 50.9111628,6.44930233 52.4832558,7.59348837 C54.0553488,8.73813953 54.8413953,10.4548837 54.8413953,12.7432558 C54.8413953,13.8506977 54.527907,14.8818605 53.9009302,15.8372093 C53.2739535,16.7934884 52.472093,17.4846512 51.4934884,17.912093 C52.1218605,18.1139535 52.7176744,18.4344186 53.2818605,18.8744186 C53.8474419,19.3148837 54.3297674,19.8302326 54.7311628,20.4209302 C55.1325581,21.0125581 55.4525581,21.6539535 55.6911628,22.3455814 C55.9288372,23.0372093 56.0483721,23.747907 56.0483721,24.4767442 C56.0483721,27.067907 55.2251163,28.9860465 53.5776744,30.2306977 C51.9297674,31.475814 49.5976744,32.0981395 46.5786047,32.0981395 C45.6483721,32.0981395 44.4148837,32.0851163 42.8818605,32.0604651 C41.3469767,32.0353488 39.4860465,31.9976744 37.2976744,31.9474419 L37.0334884,31.6832558 L37.0334884,6.29162791 L37.2976744,6.02744186 L37.2976744,6.02744186 Z" id="Fill-1" fill="#002684"></path>
                <path d="M64.7265116,27.5334884 L65.7460465,27.5334884 C66.0469767,28.3702326 66.1981395,29.2074419 66.1981395,30.0446512 C66.1981395,30.8813953 66.1595349,31.4269767 66.0846512,31.68 C64.5748837,31.9339535 63.2297674,32.0604651 62.047907,32.0604651 C60.3367442,32.0604651 59.1232558,31.6395349 58.4065116,30.7967442 C57.6897674,29.9544186 57.3316279,28.6274419 57.3316279,26.8162791 L57.3316279,4.36744186 L57.5576744,4.10325581 L59.8590698,4.10325581 C61.0413953,4.10325581 61.8716279,4.36744186 62.3493023,4.8944186 C62.8265116,5.42186047 63.0655814,6.33906977 63.0655814,7.64418605 L63.0655814,25.7627907 C63.0655814,26.9427907 63.6186047,27.5334884 64.7265116,27.5334884" id="Fill-2" fill="#002684"></path>
                <path d="M67.027907,25.495814 L67.027907,17.7613953 C67.027907,16.1269767 66.7251163,14.8693023 66.1218605,13.9883721 C67.0525581,13.1581395 68.1846512,12.7432558 69.5176744,12.7432558 C70.8506977,12.7432558 71.7567442,13.0451163 72.2339535,13.6488372 C72.7116279,14.2525581 72.9506977,15.1706977 72.9506977,16.4032558 L72.9506977,24.4018605 C72.9506977,25.2823256 73.0511628,25.924186 73.252093,26.3255814 C73.4534884,26.7283721 73.9827907,26.9293023 74.8381395,26.9293023 C75.6674419,26.9293023 76.5097674,26.5018605 77.3655814,25.6465116 L77.3655814,13.0451163 C78.1944186,12.8939535 79.1623256,12.8186047 80.2706977,12.8186047 C81.3762791,12.8186047 82.3706977,12.8939535 83.2511628,13.0451163 L83.2511628,26.4767442 C83.2511628,27.8348837 83.6023256,28.7534884 84.307907,29.2306977 C84.1813953,29.7344186 83.9427907,30.2813953 83.5897674,30.872093 C83.2386047,31.4632558 82.8734884,31.8967442 82.4967442,32.1739535 C80.4334884,32.0981395 78.9497674,31.2181395 78.0446512,29.5325581 C76.0576744,31.3190698 74.1823256,32.2116279 72.4227907,32.2116279 C70.6618605,32.2116279 69.3218605,31.6023256 68.404186,30.3813953 C67.4860465,29.1618605 67.027907,27.5334884 67.027907,25.495814" id="Fill-3" fill="#002684"></path>
                <path d="M91.1739535,20.2893023 L96.1162791,20.2893023 L96.1162791,19.8744186 C96.1162791,18.9437209 95.9093023,18.1762791 95.4990698,17.5725581 C95.0860465,16.9693023 94.4683721,16.6674419 93.644186,16.6674419 C92.8455814,16.6674419 92.2534884,16.9502326 91.8665116,17.5162791 C91.48,18.0823256 91.2488372,19.0060465 91.1739535,20.2893023 Z M101.022791,24.3637209 L91.2116279,24.3637209 C91.2613953,25.4837209 91.5488372,26.3553488 92.075814,26.9772093 C92.6013953,27.6 93.4655814,27.9106977 94.667907,27.9106977 C95.2697674,27.9106977 95.9660465,27.8255814 96.755814,27.6553488 C97.5437209,27.4851163 98.4525581,27.2051163 99.48,26.8162791 C100.305581,27.6716279 100.82,28.8288372 101.021395,30.2874419 C99.0074419,31.7209302 96.5432558,32.4376744 93.6260465,32.4376744 C92.0418605,32.4376744 90.7139535,32.1860465 89.6451163,31.6832558 C88.575814,31.1804651 87.7088372,30.475814 87.0423256,29.5702326 C86.375814,28.6651163 85.9037209,27.5962791 85.6274419,26.3637209 C85.3506977,25.1316279 85.212093,23.7855814 85.212093,22.3265116 C85.212093,20.9181395 85.3827907,19.6167442 85.7218605,18.4218605 C86.0613953,17.2274419 86.5772093,16.1893023 87.2688372,15.3088372 C87.9604651,14.4288372 88.8409302,13.7372093 89.9102326,13.2339535 C90.9781395,12.7306977 92.2293023,12.4790698 93.6637209,12.4790698 C94.8706977,12.4790698 95.9581395,12.6809302 96.9274419,13.0832558 C97.8953488,13.4855814 98.7186047,14.0390698 99.3981395,14.7427907 C100.077209,15.447907 100.59907,16.2902326 100.964651,17.2706977 C101.328372,18.2516279 101.511628,19.3213953 101.511628,20.4776744 C101.511628,22.012093 101.347907,23.307907 101.022791,24.3637209 L101.022791,24.3637209 Z" id="Fill-4" fill="#002684"></path>
                <g id="Group-8" transform="translate(109.302326, 5.581395)" fill="#002684">
                    <path d="M8.80418605,16.1204651 L10.3139535,16.0823256 L13.067907,16.0823256 C13.1939535,16.0823256 13.4134884,16.0893023 13.7288372,16.1018605 C14.0427907,16.1144186 14.275814,16.1204651 14.4260465,16.1204651 L13.784186,13.7813953 C13.1813953,11.6683721 12.4888372,9.07813953 11.7097674,6.00930233 L11.4832558,6.00930233 C11.2818605,7.09069767 10.6776744,9.49348837 9.67209302,13.2153488 L8.80418605,16.1204651 Z M8.91813953,20.8744186 C8.23906977,20.8744186 7.73488372,20.8618605 7.40883721,20.8367442 L5.78651163,26.3069767 C5.1827907,26.4581395 4.33953488,26.5334884 3.25906977,26.5334884 C2.05069767,26.5334884 1.07023256,26.3953488 0.314883721,26.1186047 L0.12744186,25.8167442 L8.42790698,0.500465116 C9.40837209,0.349767442 10.5530233,0.274418605 11.8609302,0.274418605 C13.344186,0.274418605 14.5260465,0.362790698 15.4074419,0.538139535 L23.5567442,25.8925581 C22.6762791,26.3697674 21.6818605,26.6088372 20.5767442,26.6088372 C19.2683721,26.6088372 18.3502326,26.3827907 17.8218605,25.9297674 C17.2934884,25.4772093 16.8409302,24.6093023 16.4632558,23.3269767 L15.7469767,20.8367442 C15.4190698,20.8618605 14.9288372,20.8744186 14.275814,20.8744186 L8.91813953,20.8744186 L8.91813953,20.8744186 Z" id="Fill-5"></path>
                    <path d="M33.1390698,11.5925581 C32.0837209,11.5925581 31.1646512,12.0962791 30.3851163,13.1023256 L30.3851163,21.4023256 C31.3409302,21.9813953 32.1586047,22.2702326 32.8381395,22.2702326 C34.547907,22.2702326 35.4027907,20.3716279 35.4027907,16.5734884 C35.4027907,13.2525581 34.6488372,11.5925581 33.1390698,11.5925581 Z M33.8446512,26.6465116 C32.6906977,26.6465116 31.5390698,26.3827907 30.3851163,25.8544186 L30.3851163,30.8725581 C30.3851163,32.18 30.1465116,33.0986047 29.6683721,33.6265116 C29.1897674,34.1548837 28.347907,34.4186047 27.14,34.4186047 L24.8767442,34.4186047 L24.612093,34.1548837 L24.612093,7.4427907 L24.8767442,7.17860465 L26.4232558,7.17860465 C27.8567442,7.17860465 28.9260465,7.79534884 29.6297674,9.02744186 C31.06,7.59348837 32.8027907,6.8772093 34.8581395,6.8772093 C35.9111628,6.8772093 36.8381395,7.10976744 37.6413953,7.57488372 C38.4437209,8.04093023 39.1269767,8.70046512 39.6902326,9.55534884 C40.2544186,10.4106977 40.6809302,11.4418605 40.9697674,12.6493023 C41.2576744,13.8567442 41.4023256,15.2148837 41.4023256,16.7237209 C41.4023256,18.2334884 41.207907,19.604186 40.8186047,20.8367442 C40.4306977,22.0693023 39.8981395,23.1134884 39.2213953,23.9683721 C38.5446512,24.8232558 37.7483721,25.4832558 36.8339535,25.9488372 C35.9195349,26.4139535 34.9218605,26.6465116 33.8446512,26.6465116 L33.8446512,26.6465116 Z" id="Fill-7"></path>
                </g>
                <path d="M151.571163,15.7404651 C151.697674,15.2376744 151.936279,14.6781395 152.287907,14.0618605 C152.640465,13.4455814 152.992093,12.9990698 153.345116,12.7223256 C155.65814,12.8986047 157.269302,14.0432558 158.174419,16.1553488 C159.130233,13.8916279 160.702326,12.76 162.890698,12.76 C163.543721,12.76 164.374419,12.8604651 165.38093,13.0618605 C165.38093,13.8413953 165.248837,14.7660465 164.983721,15.8353488 C164.72,16.904186 164.361395,17.8153488 163.908837,18.5702326 C163.481395,18.4195349 162.839535,18.2939535 161.985581,18.1930233 C160.727442,18.1930233 159.695349,18.8339535 158.891163,20.1172093 L158.891163,31.8506977 C158.06093,32.0013953 157.086047,32.0772093 155.966512,32.0772093 C154.847442,32.0772093 153.86,32.0013953 153.005581,31.8506977 L153.005581,19.6646512 C153.005581,17.7781395 152.526977,16.4702326 151.571163,15.7404651" id="Fill-9" fill="#002684"></path>
                <path d="M173.926047,16.8725581 C173.368372,16.8725581 172.91907,17.0046512 172.576744,17.2683721 C172.235349,17.5325581 171.962326,17.8911628 171.76,18.344186 C171.557674,18.7967442 171.417674,19.3186047 171.341395,19.9097674 C171.266512,20.5004651 171.227907,21.1362791 171.227907,21.8153488 C171.227907,22.8711628 171.259535,23.7837209 171.323256,24.5502326 C171.386047,25.3181395 171.513023,25.9590698 171.702791,26.4744186 C171.893488,26.9902326 172.159535,27.3739535 172.500465,27.6251163 C172.843256,27.8767442 173.292093,28.0027907 173.849767,28.0027907 C174.964186,28.0027907 175.69814,27.5186047 176.053023,26.5502326 C176.407907,25.5818605 176.585116,24.2051163 176.585116,22.4186047 C176.585116,20.6074419 176.407907,19.2306977 176.053023,18.2869767 C175.69814,17.344186 174.989302,16.8725581 173.926047,16.8725581 Z M179.943256,14.684186 C181.754419,16.4948837 182.659535,19.0860465 182.659535,22.455814 C182.659535,23.9655814 182.465116,25.3367442 182.074884,26.5688372 C181.684651,27.8013953 181.11907,28.8511628 180.37814,29.7190698 C179.634884,30.5869767 178.722791,31.2534884 177.642326,31.7190698 C176.560465,32.184186 175.314884,32.4167442 173.906512,32.4167442 C172.49814,32.4167442 171.259535,32.1772093 170.190233,31.7 C169.12093,31.2223256 168.215349,30.5488372 167.473953,29.6818605 C166.732093,28.8134884 166.172558,27.7637209 165.794884,26.5311628 C165.418605,25.2986047 165.229302,23.9404651 165.229302,22.455814 C165.229302,20.9469767 165.418605,19.5832558 165.794884,18.3627907 C166.172558,17.1432558 166.725116,16.0934884 167.455814,15.2125581 C168.184651,14.3325581 169.090233,13.6534884 170.172093,13.1748837 C171.253023,12.6972093 172.49814,12.4586047 173.906512,12.4586047 C176.396279,12.4586047 178.408837,13.2009302 179.943256,14.684186 L179.943256,14.684186 Z" id="Fill-10" fill="#002684"></path>
                <g id="Group-14">
                    <mask id="mask-2" fill="white">
                        <use xlink:href="#path-1"></use>
                    </mask>
                    <g id="Clip-12"></g>
                    <path d="M200.769302,19.4 L200.769302,27.1348837 C200.769302,28.7948837 201.071628,30.04 201.674419,30.8697674 C200.71907,31.7251163 199.574419,32.1530233 198.241395,32.1530233 C196.933023,32.1530233 196.040465,31.8506977 195.562326,31.2474419 C195.084651,30.6432558 194.846047,29.7251163 194.846047,28.4930233 L194.846047,20.4567442 C194.846047,19.6018605 194.733488,18.9730233 194.506977,18.5702326 C194.280465,18.1683721 193.83907,17.9669767 193.186512,17.9669767 C192.808372,17.9669767 192.38093,18.0674419 191.903256,18.2683721 C191.425581,18.4702326 190.934884,18.7967442 190.431163,19.2493023 L190.431163,31.8506977 C190.003256,31.9265116 189.53814,31.9827907 189.035349,32.0209302 C188.532558,32.0586047 188.017674,32.0772093 187.488372,32.0772093 C186.960465,32.0772093 186.445581,32.0586047 185.942791,32.0209302 C185.438605,31.9827907 184.973488,31.9265116 184.546047,31.8506977 L184.546047,13.024186 L184.809767,12.76 L187.035814,12.76 C188.570233,12.76 189.60186,13.5144186 190.129767,15.0232558 C191.890698,13.4646512 193.638605,12.6846512 195.373953,12.6846512 C197.134419,12.6846512 198.473488,13.2944186 199.392558,14.5144186 C200.310233,15.7344186 200.769302,17.3627907 200.769302,19.4" id="Fill-11" fill="#002684" mask="url(#mask-2)"></path>
                    <path d="M20.4325581,1.02186047 C19.4590698,0.746046512 18.4618605,0.534418605 17.4413953,0.382325581 L17.0469767,7.0344186 L10.4818605,7.0344186 L10.087907,0.382325581 C9.06883721,0.534418605 8.07255814,0.748837209 7.09906977,1.02418605 C6.69116279,5.2827907 8.05534884,15.8088372 0,20.8376744 L0,34.7404651 C0,34.7404651 4.89069767,40 13.7669767,40 C22.64,40 27.5306977,34.4027907 27.5306977,34.4027907 L27.5306977,20.8376744 C19.4739535,15.8088372 20.8376744,5.28046512 20.4325581,1.02186047" id="Fill-13" fill="#002684" mask="url(#mask-2)"></path>
                </g>
            </g>
        </g>
    </g>
</svg>