<?xml version="1.0" encoding="UTF-8"?>
<svg width="56px" height="56px" viewBox="0 0 56 56" version="1.1" xmlns="http://www.w3.org/2000/svg" xmlns:xlink="http://www.w3.org/1999/xlink">
    <!-- Generator: Sketch 55.2 (78181) - https://sketchapp.com -->
    <title>Icon_Recipe Cards</title>
    <desc>Created with Sketch.</desc>
    <defs>
        <polygon id="path-1" points="0 0.215428571 38.8302857 0.215428571 38.8302857 47 0 47"></polygon>
    </defs>
    <g id="Icon_Recipe-Cards" stroke="none" stroke-width="1" fill="none" fill-rule="evenodd">
        <g id="200713_Icons_rgb_recipe-cards">
            <rect id="Rectangle" x="0" y="0" width="56" height="56"></rect>
            <g id="icon-test" transform="translate(8.000000, 5.000000)">
                <g id="Group-3">
                    <mask id="mask-2" fill="white">
                        <use xlink:href="#path-1"></use>
                    </mask>
                    <g id="Clip-2"></g>
                    <path d="M5.35714286,3.59085714 C5.35714286,3.584 5.364,3.57885714 5.364,3.572 C5.36228571,3.48457143 5.388,3.39885714 5.44628571,3.332 C5.50971429,3.26171429 5.59542857,3.22057143 5.69142857,3.21542857 L9.40457143,3.00114286 L9.40457143,3.18628571 L9.42514286,43.9897143 C9.42514286,44.4114286 9.59657143,44.7885714 9.86571429,45.0714286 L8.09828571,45.1742857 C8.004,45.1914286 7.91485714,45.1485714 7.84457143,45.0851429 C7.77428571,45.0234286 7.73142857,44.936 7.72628571,44.84 L5.35714286,3.59085714 Z M5.28342857,45.6971429 C5.20971429,45.6354286 5.16342857,45.5497143 5.15485714,45.4554286 L1.224,4.32285714 C1.21714286,4.23028571 1.24457143,4.13771429 1.30457143,4.064 C1.36457143,3.992 1.45028571,3.94571429 1.54457143,3.93714286 L4.13657143,3.68857143 L6.504,44.9102857 C6.52114286,45.1845714 6.62742857,45.4314286 6.77142857,45.6577143 L5.54057143,45.7742857 C5.448,45.7845714 5.35542857,45.7554286 5.28342857,45.6971429 Z M35.484,44.3325714 L33.4165714,44.3325714 L32.3331429,44.3342857 L27.0325714,44.336 L22.632,44.3377143 L20.5594286,44.3394286 L11.004,44.3445714 C10.8085714,44.3445714 10.6491429,44.1851429 10.6491429,43.9897143 L10.6285714,3.068 L10.6285714,2.67028571 C10.6285714,2.58285714 10.6697143,2.50742857 10.7211429,2.44571429 C10.788,2.36857143 10.8754286,2.31542857 10.9834286,2.31542857 L12.0994286,2.31371429 L18.5571429,2.312 L21.4525714,2.31028571 L28.1125714,2.30685714 L29.3434286,2.30685714 L32.2851429,2.30514286 L33.5108571,2.30342857 L37.2325714,2.30171429 C37.428,2.30171429 37.5874286,2.46114286 37.5891429,2.65657143 L37.608,43.9742857 C37.608,44.1714286 37.4485714,44.3308571 37.2514286,44.3308571 L35.484,44.3325714 Z M38.8114286,2.65485714 C38.8097143,1.78571429 38.1017143,1.07771429 37.2325714,1.07771429 L33.1131429,1.07942857 C33.0617143,1.01771429 33.0291429,0.940571429 32.9657143,0.885714286 C32.652,0.604571429 32.2354286,0.462285714 31.8274286,0.488 L28.7777143,0.662857143 C28.4537143,0.357714286 28.0217143,0.176 27.5571429,0.222285714 L18.5125714,1.088 L10.9817143,1.09142857 C10.4605714,1.09142857 10.0182857,1.364 9.732,1.75657143 L5.62114286,1.99314286 C5.26285714,2.01371429 4.94228571,2.17485714 4.67828571,2.40971429 L1.42971429,2.72 C1.00971429,2.75942857 0.630857143,2.96 0.361714286,3.28571429 C0.0925714286,3.60971429 -0.0342857143,4.02114286 0.00685714286,4.44114286 L3.93771429,45.572 C3.97714286,45.992 4.17942857,46.3725714 4.50514286,46.6417143 C4.78971429,46.8765714 5.13942857,47 5.50285714,47 C5.55428571,47 5.60742857,46.9982857 5.65714286,46.9931429 L17.5577143,45.8565714 L22.704,45.56 L37.2514286,45.5531429 C38.1222857,45.5531429 38.8302857,44.8451429 38.8302857,43.9742857 L38.8114286,2.65485714 L38.8114286,2.65485714 Z" id="Fill-1" fill="#002856" mask="url(#mask-2)"></path>
                </g>
                <path d="M21.06,13.5628571 C21.0325714,13.5868571 21.0222857,13.6177143 20.9948571,13.6417143 L23.9845714,13.6417143 C23.6228571,13.3057143 23.1,13.0777143 22.4914286,13.0777143 C21.9462857,13.0777143 21.4388571,13.2508571 21.06,13.5628571" id="Fill-4" fill="#002856"></path>
                <path d="M20.3588571,12.7142857 C20.9331429,12.2394286 21.6891429,11.9771429 22.4914286,11.9771429 C23.7857143,11.9771429 24.8914286,12.668 25.3422857,13.64 L26.4051429,13.64 C26.2268571,12.2154286 24.5554286,11.0908571 22.5017143,11.0908571 C22.5017143,11.0908571 22.5017143,11.0908571 22.5,11.0908571 C20.4462857,11.0925714 18.7748571,12.2188571 18.5982857,13.6434286 L19.6405714,13.6434286 C19.7982857,13.2971429 20.0382857,12.98 20.3588571,12.7142857" id="Fill-5" fill="#002856"></path>
                <path d="M29.244,13.6382857 C29.0691429,13.3948571 28.8617143,13.1651429 28.5891429,12.9611429 C28.1588571,12.6405714 27.6377143,12.4142857 27.0737143,12.2685714 C27.3257143,12.6902857 27.4697143,13.1531429 27.5108571,13.64 L29.244,13.6382857" id="Fill-6" fill="#002856"></path>
                <path d="M16.6817143,13.7514286 C16.7468571,13.6828571 16.8308571,13.6451429 16.9251429,13.6451429 L17.4925714,13.6434286 C17.6588571,11.612 19.8274286,9.992 22.5,9.99028571 L22.5017143,9.99028571 C22.9628571,9.99028571 23.3982857,10.0537143 23.8234286,10.1428571 L25.5977143,5.96171429 L26.6125714,6.392 L24.8794286,10.472 C25.1177143,10.5714286 25.3457143,10.6828571 25.56,10.8114286 L27.4611429,6.33371429 L28.4742857,6.764 L26.652,11.0582857 C27.624,11.1937143 28.5257143,11.5417143 29.2474286,12.0782857 C29.8354286,12.5171429 30.2468571,13.0554286 30.4988571,13.6382857 L31.5205714,13.6382857 C31.6114286,13.6382857 31.6988571,13.676 31.7622857,13.7445714 C31.8274286,13.8131429 31.8565714,13.9005714 31.8497143,13.9931429 C31.7108571,15.8171429 30.8571429,17.5108571 29.4462857,18.764 C29.2902857,18.9011429 29.1291429,19.0331429 28.9645714,19.1582857 L19.4862857,19.1634286 C19.32,19.0382857 19.1605714,18.9062857 19.0045714,18.7691429 C17.592,17.5177143 16.7365714,15.824 16.596,14 C16.5891429,13.9091429 16.6182857,13.82 16.6817143,13.7514286 Z M28.2325714,21.7502857 L20.2217143,21.752 C19.8514286,21.752 19.5514286,21.4537143 19.5497143,21.0851429 L19.5497143,19.9828571 L28.8994286,19.9777143 L28.9011429,21.08 C28.9011429,21.4502857 28.6028571,21.7502857 28.2325714,21.7502857 Z M12.7508571,24.0371429 L35.4874286,24.0268571 C35.8337143,24.0268571 36.1148571,23.7457143 36.1131507,23.3977143 L36.1062857,4.29714286 C36.1062857,3.95085714 35.8234286,3.66971429 35.4771429,3.66971429 L12.7405714,3.68 C12.3942857,3.68 12.1114286,3.96114286 12.1114286,4.30914286 L12.1217143,23.4097143 C12.1217143,23.756 12.4028571,24.0371429 12.7508571,24.0371429 L12.7508571,24.0371429 Z" id="Fill-7" fill="#002856"></path>
                <path d="M25.0782857,38.492 C24.9702857,38.4628571 24.8571429,38.4388571 24.744,38.4217143 L24.6994286,39.1622857 L23.9657143,39.1622857 L23.9194286,38.4217143 C23.808,38.4388571 23.6948571,38.4628571 23.5851429,38.492 C23.5405714,38.9651429 23.6931429,40.1377143 22.7914286,40.6965714 L22.7914286,42.2051429 C22.7914286,42.2051429 23.3382857,42.8274286 24.3325714,42.8257178 C25.3268571,42.8257178 25.8737143,42.2428571 25.8737143,42.2428571 L25.8737143,40.6948571 C24.9702857,40.136 25.1228571,38.9651429 25.0782857,38.492" id="Fill-8" fill="#002856"></path>
                <path d="M12.5897143,27.6251429 L35.6502857,27.6131429 C35.988,27.6131429 36.2605714,27.3405714 36.2605714,27.0028571 C36.2605714,26.6651429 35.988,26.3925714 35.6502857,26.3925714 L12.5897143,26.4028571 C12.252,26.4028571 11.9777143,26.6771429 11.9777143,27.0148571 C11.9777143,27.3525714 12.252,27.6251429 12.5897143,27.6251429" id="Fill-9" fill="#002856"></path>
                <path d="M12.5914286,30.6045714 L32.5697143,30.5942857 C32.9074286,30.5942857 33.18,30.3217143 33.18,29.9822857 C33.18,29.6445714 32.9074286,29.372 32.5697143,29.372 L12.5914286,29.3822857 C12.252,29.3822857 11.9794286,29.6548571 11.9794286,29.9925714 C11.9794286,30.3302857 12.2537143,30.6045714 12.5914286,30.6045714" id="Fill-10" fill="#002856"></path>
                <path d="M35.6537143,32.3497143 L12.5931429,32.3617143 C12.2537143,32.3617143 11.9811429,32.6342857 11.9811429,32.972 C11.9811429,33.3114286 12.2554286,33.584 12.5931429,33.584 L35.6537143,33.572 C35.9914286,33.572 36.264,33.2994286 36.264,32.9617143 C36.264,32.6222857 35.9914286,32.3497143 35.6537143,32.3497143" id="Fill-11" fill="#002856"></path>
                <path d="M33.6,35.4337143 L12.5948571,35.444 C12.2554286,35.444 11.9828571,35.7165714 11.9828571,36.0542857 C11.9828571,36.392 12.2571429,36.6662857 12.5948571,36.6662857 L33.6,36.656 C33.9377143,36.656 34.2102857,36.3834286 34.2102857,36.044 C34.2102857,35.7062857 33.9377143,35.4337143 33.6,35.4337143" id="Fill-12" fill="#002856"></path>
            </g>
        </g>
    </g>
</svg>